<svg xmlns="http://www.w3.org/2000/svg" width="1536" height="1536" viewBox="0 0 1536 1536" version="1.1"><path d="M 724.500 29.087 C 709.100 29.460, 694.700 30.054, 692.500 30.408 C 674.995 33.224, 669.313 34.055, 661 35.018 C 644.143 36.970, 628.218 39.834, 608 44.549 C 599.475 46.537, 590.700 48.569, 588.500 49.065 C 577.045 51.644, 571.865 52.973, 565.500 54.966 C 561.650 56.172, 556.475 57.757, 554 58.489 C 543.561 61.577, 532.875 65.099, 523.500 68.541 C 518 70.561, 509.900 73.483, 505.500 75.034 C 501.100 76.585, 494.350 79.273, 490.500 81.007 C 486.650 82.740, 480.800 85.082, 477.500 86.211 C 474.200 87.339, 470.375 88.846, 469 89.559 C 467.625 90.272, 458.625 94.595, 449 99.167 C 439.375 103.738, 431.275 107.731, 431 108.041 C 430.725 108.350, 428.475 109.369, 426 110.305 C 423.525 111.241, 419.055 113.468, 416.066 115.253 C 410.541 118.554, 399.602 124.586, 392.680 128.148 C 390.579 129.229, 386.439 131.663, 383.478 133.557 C 380.518 135.451, 377.737 137.004, 377.298 137.010 C 376.859 137.015, 374.665 138.478, 372.423 140.260 C 370.181 142.042, 364.840 145.300, 360.555 147.500 C 356.270 149.700, 351.669 152.513, 350.330 153.750 C 348.992 154.988, 347.470 156, 346.948 156 C 346.427 156, 346 156.450, 346 157 C 346 157.550, 345.434 158, 344.743 158 C 344.051 158, 340.339 160.371, 336.493 163.270 C 332.647 166.168, 328.375 169.094, 327 169.772 C 325.625 170.449, 321.800 172.598, 318.500 174.545 C 315.200 176.493, 310.836 178.801, 308.802 179.675 L 305.103 181.263 307.236 182.990 L 309.370 184.718 306.935 188.746 C 305.596 190.961, 297.759 198.562, 289.520 205.637 C 260.575 230.491, 230.686 259.893, 211.894 282 C 198.558 297.689, 189.842 306.915, 187.722 307.588 C 186.152 308.087, 184.987 307.526, 183.137 305.378 L 180.656 302.500 181.307 305.769 C 182.489 311.708, 176.151 322.617, 164.322 335 C 161.958 337.475, 160.018 340.056, 160.012 340.737 C 160.005 341.417, 157.474 344.950, 154.388 348.589 C 151.301 352.228, 148.246 356.171, 147.599 357.352 C 144.250 363.470, 139.708 370, 138.803 370 C 138.240 370, 138.781 370.812, 140.006 371.803 L 142.233 373.607 139.479 379.053 C 137.964 382.049, 134.023 388.979, 130.719 394.454 C 122.686 407.767, 112.837 425.857, 105.649 440.500 C 99.890 452.232, 97.140 458.394, 83.557 490 C 75.619 508.469, 74.700 510, 71.544 510 C 69.891 510, 68.946 510.706, 68.532 512.250 C 66.480 519.916, 65.394 522.346, 63.838 522.753 C 59.889 523.785, 58.736 527.653, 59.468 537.412 C 60.121 546.124, 59.983 547.086, 56.578 557.531 C 52.523 569.967, 51.039 572.989, 51.015 568.857 C 50.999 566.039, 48.505 564.242, 47.661 566.440 C 46.975 568.229, 48.070 575.925, 49.102 576.563 C 51.459 578.020, 41.897 606.558, 39.376 605.591 C 37.459 604.855, 35.969 607.379, 35.354 612.402 C 34.893 616.165, 35.078 617, 36.373 617 C 37.242 617, 38.705 618.146, 39.622 619.546 C 40.986 621.628, 41.182 623.629, 40.696 630.511 C 40.074 639.335, 34.714 678.805, 32.939 687.637 C 32.041 692.109, 29.170 696.500, 27.145 696.500 C 26.790 696.500, 26.711 696.950, 26.968 697.500 C 27.225 698.050, 27.708 730.450, 28.040 769.500 C 28.658 842.224, 28.949 848.051, 33.189 872.500 C 34.334 879.100, 35.637 887.875, 36.086 892 C 36.535 896.125, 37.211 902.313, 37.590 905.750 C 37.968 909.188, 38.628 912, 39.057 912 C 39.485 912, 40.827 916.388, 42.039 921.750 C 43.251 927.112, 45.497 935.325, 47.031 940 C 48.564 944.675, 50.131 950.975, 50.512 954 C 50.893 957.025, 52.005 961.975, 52.983 965 C 55.638 973.207, 60.535 989.629, 62.526 997 C 66.170 1010.493, 68.403 1017.641, 70.336 1022 C 71.747 1025.183, 72.281 1028.378, 72.161 1032.918 C 71.951 1040.815, 73.762 1044.349, 77.531 1043.403 C 79.406 1042.932, 80 1043.178, 80 1044.427 C 80 1045.331, 80.727 1047.180, 81.615 1048.535 C 82.503 1049.891, 82.902 1051, 82.500 1051 C 82.098 1051, 82.429 1052.012, 83.233 1053.250 C 84.038 1054.487, 85.267 1057.300, 85.963 1059.500 C 88.140 1066.375, 96.234 1082.973, 97.138 1082.414 C 97.612 1082.122, 98 1083.259, 98 1084.941 C 98 1086.623, 98.450 1088, 99 1088 C 99.550 1088, 100 1088.900, 100 1090 C 100 1091.100, 100.450 1092, 101 1092 C 101.550 1092, 102 1092.681, 102 1093.514 C 102 1094.346, 102.417 1095.809, 102.927 1096.764 C 103.437 1097.719, 104.116 1099.175, 104.436 1100 C 105.078 1101.656, 112.970 1116.562, 117.505 1124.685 C 119.098 1127.537, 120.760 1129.648, 121.200 1129.376 C 121.640 1129.104, 122 1129.771, 122 1130.858 C 122 1131.944, 122.338 1132.983, 122.750 1133.167 C 123.163 1133.350, 124.619 1135.750, 125.987 1138.500 C 127.354 1141.250, 128.708 1143.725, 128.996 1144 C 129.284 1144.275, 130.405 1146.188, 131.487 1148.250 C 132.569 1150.313, 133.877 1152, 134.394 1152 C 134.911 1152, 135.053 1152.281, 134.710 1152.623 C 134.367 1152.966, 135.192 1154.696, 136.543 1156.468 C 137.894 1158.239, 139 1160.209, 139 1160.844 C 139 1161.480, 139.398 1162, 139.883 1162 C 140.369 1162, 141.014 1162.945, 141.316 1164.101 C 141.627 1165.290, 142.339 1165.908, 142.957 1165.526 C 143.558 1165.155, 143.985 1165.222, 143.906 1165.676 C 143.555 1167.700, 144.084 1169.066, 145 1168.500 C 145.550 1168.160, 146 1168.809, 146 1169.941 C 146 1171.073, 146.450 1172, 147 1172 C 147.550 1172, 148 1172.474, 148 1173.053 C 148 1174.200, 158.522 1190.665, 160.553 1192.696 C 161.241 1193.384, 162.787 1195.537, 163.987 1197.480 C 165.188 1199.423, 166.594 1200.751, 167.110 1200.432 C 167.627 1200.113, 167.985 1200.222, 167.906 1200.676 C 167.555 1202.700, 168.084 1204.066, 169 1203.500 C 169.550 1203.160, 170 1203.369, 170 1203.965 C 170 1204.969, 172.514 1208.748, 180.711 1220.066 C 185.892 1227.221, 187.303 1229.042, 191.034 1233.385 C 192.978 1235.648, 197.786 1241.325, 201.719 1246 C 211.675 1257.836, 214.686 1260.980, 215.391 1260.276 C 215.726 1259.941, 216 1260.417, 216 1261.333 C 216 1262.250, 216.374 1263, 216.831 1263 C 217.288 1263, 218.293 1264.237, 219.064 1265.750 C 220.802 1269.161, 239.234 1288, 240.833 1288 C 241.475 1288, 242 1288.421, 242 1288.935 C 242 1290.715, 285.327 1332.783, 288.303 1333.893 C 289.431 1334.313, 296.045 1339.283, 299.750 1342.494 C 300.987 1343.567, 302 1345.019, 302 1345.722 C 302 1346.425, 302.652 1347, 303.448 1347 C 304.245 1347, 307.511 1349.176, 310.707 1351.836 C 313.903 1354.495, 317.505 1357.200, 318.713 1357.846 C 319.920 1358.492, 323.854 1361.279, 327.454 1364.038 C 331.054 1366.798, 334.014 1368.706, 334.030 1368.278 C 334.047 1367.850, 334.525 1368.297, 335.092 1369.271 C 335.659 1370.245, 336.545 1370.781, 337.061 1370.462 C 337.578 1370.143, 338 1370.315, 338 1370.844 C 338 1371.710, 342.180 1374.829, 352.851 1381.927 C 354.858 1383.262, 358.862 1385.925, 361.750 1387.843 C 364.637 1389.762, 367.004 1391.595, 367.008 1391.916 C 367.012 1392.237, 368.025 1392.989, 369.258 1393.587 C 370.491 1394.184, 375.100 1396.908, 379.500 1399.638 C 383.900 1402.369, 389.975 1405.914, 393 1407.517 C 396.025 1409.119, 400.525 1411.795, 403 1413.464 C 405.475 1415.132, 408.625 1417.103, 410 1417.843 C 415.568 1420.841, 441.873 1434, 442.297 1434 C 442.547 1434, 447.870 1436.417, 454.126 1439.370 C 460.382 1442.324, 471.125 1447.091, 478 1449.963 C 484.875 1452.836, 492.917 1456.269, 495.871 1457.593 C 498.825 1458.917, 501.694 1460, 502.247 1460 C 502.800 1460, 507.133 1461.502, 511.876 1463.338 C 519.169 1466.160, 539.689 1473.030, 557 1478.445 C 562.180 1480.065, 573.584 1483.182, 583 1485.551 C 586.575 1486.451, 591.975 1487.866, 595 1488.696 C 598.025 1489.527, 604.253 1490.813, 608.839 1491.555 C 613.425 1492.297, 618.600 1493.326, 620.339 1493.842 C 622.078 1494.358, 626.875 1495.314, 631 1495.967 C 635.125 1496.619, 640.307 1497.598, 642.516 1498.141 C 644.725 1498.684, 648.100 1499.286, 650.016 1499.479 C 653.123 1499.791, 669.745 1502.206, 688 1504.998 C 698.188 1506.556, 768.167 1509.274, 781.500 1508.630 C 788.100 1508.311, 802.050 1507.801, 812.500 1507.497 C 837.767 1506.761, 843.098 1506.355, 859 1503.955 C 866.425 1502.834, 875.650 1501.452, 879.500 1500.884 C 892.195 1499.010, 898.370 1497.975, 909.500 1495.857 C 927.353 1492.460, 928.253 1492.268, 934 1490.642 C 937.025 1489.787, 942.200 1488.438, 945.500 1487.644 C 972.590 1481.133, 994.651 1474.256, 1034 1460.058 C 1045.435 1455.932, 1050.346 1453.918, 1063.253 1448.063 C 1066.967 1446.378, 1070.207 1445, 1070.453 1445 C 1071.019 1445, 1097.308 1432.520, 1102 1430.025 C 1103.925 1429.001, 1108.591 1427.001, 1112.369 1425.581 C 1116.148 1424.161, 1121.773 1421.477, 1124.869 1419.615 C 1135.047 1413.497, 1138.592 1411.992, 1139.854 1413.254 C 1140.715 1414.115, 1141.002 1414.040, 1141.009 1412.950 C 1141.013 1412.153, 1144.051 1409.347, 1147.759 1406.715 C 1158.704 1398.945, 1170.180 1391.206, 1175 1388.345 C 1182.170 1384.089, 1200.790 1370.888, 1206.103 1366.294 C 1208.779 1363.980, 1211.988 1361.544, 1213.234 1360.880 C 1214.480 1360.217, 1217.750 1357.992, 1220.500 1355.936 C 1223.250 1353.881, 1227.400 1351.142, 1229.722 1349.849 C 1232.044 1348.557, 1237.715 1343.900, 1242.323 1339.500 C 1246.932 1335.100, 1254.898 1327.675, 1260.026 1323 C 1275.592 1308.809, 1300.065 1285.024, 1307.847 1276.524 C 1324.023 1258.856, 1345.190 1237.973, 1349.457 1235.472 C 1353.289 1233.227, 1354.202 1232.058, 1355.475 1227.773 C 1356.300 1224.995, 1358.218 1221.112, 1359.737 1219.145 C 1362.316 1215.806, 1368.302 1206.498, 1374.624 1196 C 1380.024 1187.032, 1394.217 1165.821, 1396.908 1162.698 C 1401.188 1157.731, 1408.979 1145.485, 1414.730 1134.685 C 1417.607 1129.284, 1420.791 1123.657, 1421.806 1122.182 C 1422.821 1120.707, 1424.245 1117.925, 1424.971 1116 C 1425.696 1114.075, 1427.778 1109.505, 1429.596 1105.845 C 1431.414 1102.185, 1434.348 1095.441, 1436.115 1090.857 C 1437.883 1086.274, 1440.554 1080.268, 1442.051 1077.512 C 1443.547 1074.755, 1446.879 1067.100, 1449.454 1060.500 C 1454.524 1047.505, 1455.026 1046.261, 1457.326 1041 C 1458.167 1039.075, 1459.593 1035.250, 1460.495 1032.500 C 1462.440 1026.569, 1464.441 1021.796, 1467.003 1016.973 C 1468.034 1015.034, 1470.277 1008.093, 1471.987 1001.549 C 1473.698 995.005, 1475.276 989.362, 1475.495 989.008 C 1475.713 988.655, 1476.850 984.796, 1478.021 980.433 C 1479.192 976.070, 1480.791 970.138, 1481.575 967.250 C 1484.234 957.456, 1485.699 951.516, 1486.939 945.500 C 1487.620 942.200, 1488.579 938.731, 1489.071 937.791 C 1489.563 936.851, 1490.688 932.585, 1491.571 928.311 C 1492.454 924.037, 1493.577 919.791, 1494.066 918.876 C 1494.556 917.962, 1495.416 913.151, 1495.979 908.186 C 1496.541 903.222, 1497.220 898.561, 1497.488 897.830 C 1497.755 897.098, 1498.421 892.900, 1498.967 888.500 C 1499.512 884.100, 1500.635 876.450, 1501.461 871.500 C 1502.287 866.550, 1503.460 858.225, 1504.069 853 C 1504.678 847.775, 1505.575 840.125, 1506.062 836 C 1506.550 831.875, 1507.417 814.325, 1507.989 797 C 1509.194 760.499, 1508.077 721.365, 1505.050 694.028 C 1503.983 684.388, 1502.912 674.700, 1502.670 672.500 C 1501.695 663.641, 1498.899 642.435, 1498.454 640.531 C 1498.193 639.414, 1497.572 633.775, 1497.074 628 C 1496.425 620.465, 1495.174 614.535, 1492.643 607 C 1488.947 595.998, 1486.815 588.729, 1481.939 570.500 C 1480.320 564.450, 1477.658 555, 1476.023 549.500 C 1474.388 544, 1472.769 537.475, 1472.426 535 C 1472.082 532.525, 1469.566 525.631, 1466.834 519.679 C 1464.102 513.728, 1460.561 503.760, 1458.966 497.529 C 1457.370 491.298, 1454.967 483.793, 1453.626 480.850 C 1452.285 477.908, 1450.394 473.060, 1449.423 470.079 C 1448.452 467.097, 1445.711 462.268, 1443.332 459.346 C 1440.952 456.425, 1437.799 450.990, 1436.324 447.268 C 1434.849 443.545, 1432.645 438.896, 1431.425 436.935 C 1430.206 434.973, 1427.301 429.573, 1424.971 424.935 C 1422.640 420.296, 1419.228 414.144, 1417.389 411.265 C 1415.549 408.385, 1412.691 403.349, 1411.037 400.074 C 1409.384 396.798, 1406.688 392.001, 1405.048 389.414 C 1403.407 386.827, 1401.371 382.638, 1400.523 380.105 C 1399.674 377.572, 1397.353 373.925, 1395.364 372 C 1392.237 368.973, 1387.108 361.686, 1364.397 328.002 C 1362.141 324.655, 1359.136 320.698, 1357.720 319.208 C 1356.304 317.719, 1353.476 313.201, 1351.435 309.169 C 1349.129 304.612, 1346.546 301.059, 1344.612 299.781 C 1340.608 297.134, 1333.129 288.141, 1330.274 282.538 C 1328.220 278.507, 1323.463 274, 1321.262 274 C 1319.685 274, 1312.902 266.767, 1309.396 261.347 C 1307.563 258.513, 1303.979 254.463, 1301.433 252.347 C 1291.159 243.811, 1287.976 240.634, 1285.553 236.501 C 1284.159 234.121, 1281.326 231.157, 1279.259 229.915 C 1272.923 226.107, 1265.145 219.073, 1259.379 211.936 C 1255.731 207.421, 1252.942 204.927, 1251.088 204.519 C 1249.551 204.182, 1244.740 200.986, 1240.397 197.419 C 1236.054 193.851, 1229.309 188.360, 1225.410 185.216 C 1217.360 178.727, 1179.403 151.267, 1172.232 146.745 C 1169.629 145.104, 1165.382 141.790, 1162.793 139.380 C 1160.204 136.971, 1157.437 135, 1156.644 135 C 1155.290 135, 1148.951 131.876, 1141 127.290 C 1139.075 126.180, 1135.700 124.238, 1133.500 122.975 C 1131.300 121.712, 1127.250 119.260, 1124.500 117.526 C 1121.750 115.792, 1116.575 113.100, 1113 111.543 C 1109.425 109.985, 1097.050 104.117, 1085.500 98.502 C 1073.950 92.886, 1062.925 87.731, 1061 87.045 C 1056.533 85.454, 1052.965 84.003, 1050.764 82.883 C 1049.809 82.397, 1048.584 82, 1048.043 82 C 1047.502 82, 1044.458 80.849, 1041.280 79.443 C 1038.101 78.037, 1034.600 76.493, 1033.500 76.013 C 1032.400 75.532, 1029.700 74.596, 1027.500 73.932 C 1025.300 73.268, 1021.700 71.939, 1019.500 70.978 C 1011.155 67.332, 1004.133 64.859, 996.940 63.036 C 992.848 61.998, 986.350 60.178, 982.500 58.992 C 978.650 57.806, 974.150 56.460, 972.500 56.001 C 970.850 55.541, 967.925 54.664, 966 54.051 C 959.778 52.069, 948.665 49.284, 942 48.038 C 938.425 47.369, 934.600 46.459, 933.500 46.016 C 931.538 45.225, 923.429 43.495, 917.500 42.604 C 915.850 42.355, 910 41.269, 904.500 40.189 C 899 39.108, 888.200 37.248, 880.500 36.054 C 872.800 34.859, 862.900 33.261, 858.500 32.501 C 854.100 31.741, 845.325 30.644, 839 30.063 C 824.532 28.734, 761.369 28.195, 724.500 29.087 M 721 66.657 C 679.336 69.496, 619.121 79.671, 583 89.978 C 509.159 111.046, 456.257 134.379, 393.749 173.450 C 374.840 185.269, 343.969 207.291, 330.004 218.923 C 303.752 240.789, 288.199 255.017, 266.861 276.685 C 241.905 302.030, 213.944 335.051, 199.702 356 C 196.898 360.125, 193.169 365.380, 191.416 367.677 C 187.089 373.347, 165.754 407.051, 158.295 420 C 148.397 437.183, 134.751 464.171, 125.110 485.631 C 95.718 551.056, 74.751 630.441, 69.021 698 C 68.391 705.425, 67.663 712.850, 67.402 714.500 C 66.162 722.355, 65.778 798.541, 66.900 814.034 C 68.535 836.597, 70.762 857.301, 72.972 870.462 C 73.991 876.533, 75.127 883.750, 75.496 886.500 C 78.521 909.027, 90.460 956.851, 101.686 991.414 C 107.200 1008.392, 117.054 1034.128, 125.174 1052.762 C 130.881 1065.856, 152.984 1109.425, 159.286 1120 C 184.622 1162.518, 207.536 1194.230, 238.393 1229.485 C 261.177 1255.515, 292.583 1287.073, 308.049 1299.476 C 312.147 1302.763, 318.003 1307.724, 321.063 1310.500 C 327.402 1316.252, 356.820 1338.477, 371 1348.227 C 393.747 1363.866, 416.309 1377.423, 440.500 1389.988 C 448.200 1393.988, 456.300 1398.279, 458.500 1399.526 C 460.700 1400.772, 462.950 1401.892, 463.500 1402.015 C 464.050 1402.139, 465.542 1402.636, 466.815 1403.120 C 468.088 1403.604, 469.315 1404, 469.540 1404 C 469.765 1404, 476.373 1407.085, 484.225 1410.856 C 513.997 1425.154, 552.709 1438.803, 592.500 1449.030 C 694.011 1475.121, 795.618 1478.570, 898.500 1459.417 C 924.508 1454.576, 953.415 1447.307, 980.500 1438.797 C 1004.403 1431.288, 1050.066 1413.626, 1052 1411.142 C 1052.275 1410.789, 1053.175 1410.360, 1054 1410.188 C 1054.825 1410.016, 1058.236 1408.554, 1061.579 1406.938 C 1064.922 1405.322, 1068.021 1404, 1068.465 1404 C 1070.203 1404, 1107.639 1384.582, 1119.234 1377.667 C 1139.080 1365.830, 1162.529 1350.758, 1175 1341.824 C 1193.941 1328.254, 1210.879 1315.186, 1215 1310.963 C 1215.825 1310.118, 1219.985 1306.603, 1224.245 1303.153 C 1253.301 1279.619, 1302.524 1227.268, 1330.167 1190.500 C 1369.284 1138.471, 1403.564 1076.675, 1424.470 1020.500 C 1443.841 968.453, 1456.405 920.524, 1463.922 870 C 1471.982 815.828, 1472.729 746.806, 1465.947 683 C 1463.310 658.189, 1454.871 614.843, 1446.929 585.322 C 1424.127 500.558, 1382.526 415.818, 1328.432 343.949 C 1264.071 258.441, 1176.529 185.902, 1079.500 137.683 C 1016.709 106.478, 949.563 85.175, 880.500 74.546 C 830.972 66.924, 828.340 66.723, 775 66.492 C 748.325 66.377, 724.025 66.451, 721 66.657" stroke="none" fill="#e91408" fill-rule="evenodd"/><path d="M 721 66.657 C 679.336 69.496, 619.121 79.671, 583 89.978 C 509.159 111.046, 456.257 134.379, 393.749 173.450 C 374.840 185.269, 343.969 207.291, 330.004 218.923 C 303.752 240.789, 288.199 255.017, 266.861 276.685 C 241.905 302.030, 213.944 335.051, 199.702 356 C 196.898 360.125, 193.169 365.380, 191.416 367.677 C 187.089 373.347, 165.754 407.051, 158.295 420 C 148.397 437.183, 134.751 464.171, 125.110 485.631 C 95.718 551.056, 74.751 630.441, 69.021 698 C 68.391 705.425, 67.663 712.850, 67.402 714.500 C 66.162 722.355, 65.778 798.541, 66.900 814.034 C 68.535 836.597, 70.762 857.301, 72.972 870.462 C 73.991 876.533, 75.127 883.750, 75.496 886.500 C 78.521 909.027, 90.460 956.851, 101.686 991.414 C 107.200 1008.392, 117.054 1034.128, 125.174 1052.762 C 130.881 1065.856, 152.984 1109.425, 159.286 1120 C 177.524 1150.605, 197.121 1179.153, 218.087 1205.657 C 241.400 1235.128, 288.117 1283.522, 311 1301.904 L 318.500 1307.928 321.192 1302.214 C 322.673 1299.071, 325.533 1293.012, 327.548 1288.749 C 331.190 1281.045, 341.007 1268.689, 349.690 1260.882 C 356.956 1254.348, 374.290 1245.201, 384.500 1242.512 C 394.232 1239.948, 408.152 1239.502, 418.335 1241.426 C 430.593 1243.743, 441.369 1247.913, 442.462 1250.761 C 443.175 1252.621, 448.088 1285.316, 451.513 1311 C 452.943 1321.725, 454.756 1334.325, 455.541 1339 C 456.326 1343.675, 458.300 1359.348, 459.927 1373.829 C 462.674 1398.272, 463.692 1403, 466.205 1403 C 466.733 1403, 470.319 1404.384, 474.173 1406.076 C 478.028 1407.768, 481.306 1409.005, 481.459 1408.826 C 481.612 1408.647, 480.677 1401.075, 479.383 1392 C 476.594 1372.451, 469.735 1321.994, 466.834 1299.694 C 465.703 1291.001, 465.033 1283.633, 465.345 1283.321 C 465.657 1283.009, 468.745 1285.204, 472.206 1288.198 C 498.860 1311.255, 542.338 1337.380, 583 1354.772 C 632.872 1376.104, 666.145 1385.519, 715 1392.123 C 729.669 1394.106, 735.773 1394.353, 770 1394.353 C 801.103 1394.353, 810.998 1394.016, 821.500 1392.599 C 905.736 1381.227, 975.292 1352.800, 1043.500 1301.870 C 1050.650 1296.531, 1059.893 1289.025, 1064.041 1285.191 L 1071.581 1278.219 1069.787 1291.859 C 1068.801 1299.362, 1067.106 1313.150, 1066.021 1322.500 C 1064.204 1338.161, 1058.545 1374.977, 1054.140 1399.788 C 1053.135 1405.446, 1052.591 1410.247, 1052.930 1410.457 C 1053.269 1410.666, 1055.786 1409.729, 1058.523 1408.373 C 1061.261 1407.017, 1065.812 1405.015, 1068.639 1403.924 C 1074.442 1401.683, 1074.197 1402.427, 1075.535 1383 C 1076.672 1366.497, 1079.150 1341.391, 1080.521 1332.500 C 1082.168 1321.813, 1084.315 1304.143, 1086.473 1283.500 C 1088.662 1262.553, 1089.350 1259.981, 1093.481 1257.282 C 1101.728 1251.892, 1118.101 1248.405, 1130.635 1249.369 C 1158.463 1251.508, 1193.099 1273.591, 1210.436 1300.250 C 1213.565 1305.063, 1216.358 1309, 1216.642 1309 C 1217.698 1309, 1232.330 1296.560, 1242.245 1287.232 C 1310.825 1222.715, 1360.700 1156.403, 1398.485 1079.500 C 1415.309 1045.257, 1423.223 1026.037, 1435.335 990 C 1447.223 954.627, 1458.163 908.704, 1463.922 870 C 1471.982 815.828, 1472.729 746.806, 1465.947 683 C 1463.310 658.189, 1454.871 614.843, 1446.929 585.322 C 1424.127 500.558, 1382.526 415.818, 1328.432 343.949 C 1264.071 258.441, 1176.529 185.902, 1079.500 137.683 C 1016.709 106.478, 949.563 85.175, 880.500 74.546 C 830.972 66.924, 828.340 66.723, 775 66.492 C 748.325 66.377, 724.025 66.451, 721 66.657 M 818 194.008 C 807.288 195.536, 799.420 198.776, 790.980 205.136 C 781.458 212.311, 778.476 217.247, 777.025 228.232 C 775.203 242.028, 773.918 319.254, 775.485 320.816 C 775.862 321.192, 781.518 318.673, 788.054 315.217 C 805.291 306.102, 806.097 305.884, 825.500 305.083 C 839.402 304.510, 843.320 304.012, 847 302.353 C 856.411 298.110, 869.792 283.157, 876.800 269.052 C 880.497 261.609, 880.500 261.594, 880.500 248.552 C 880.500 236.490, 880.299 235.083, 877.854 230 C 876.398 226.975, 874.543 222.925, 873.730 221 C 870.437 213.197, 860.482 203.812, 849.707 198.352 C 842.282 194.589, 827.820 192.608, 818 194.008 M 698 196.064 C 675.722 202.161, 665.845 212.861, 657.905 239.500 C 655.186 248.620, 654.555 252.597, 654.209 262.768 C 653.681 278.349, 653.794 278.538, 667.498 284.953 C 678.820 290.254, 685.806 295.906, 690.959 303.936 C 694.737 309.823, 694.845 310.960, 691.250 307.008 C 687.757 303.167, 673.237 294.015, 670.541 293.954 C 669.418 293.929, 665.125 292.242, 661 290.204 C 655.003 287.242, 652.863 285.546, 650.319 281.740 C 644.347 272.804, 643.610 259.662, 648.050 241.294 L 650.166 232.540 647.567 230.304 C 644.066 227.292, 637.924 225.749, 629.571 225.783 C 623.537 225.808, 621.667 226.308, 615.105 229.656 C 609.144 232.696, 606.377 234.922, 601.870 240.301 C 593.610 250.160, 591.289 256.703, 589.934 273.957 C 588.586 291.114, 588.039 293.401, 585.184 293.819 C 583.492 294.067, 582.298 293.004, 579.852 289.069 C 578.119 286.281, 576.073 284, 575.305 284 C 573.059 284, 569.097 288.593, 566.463 294.251 C 562.120 303.579, 563.431 320.157, 569.559 333.422 C 574.259 343.594, 573.840 345.560, 568.151 340.034 C 562.465 334.511, 559.377 327.440, 558.171 317.180 C 557.633 312.604, 556.966 308.633, 556.689 308.356 C 555.586 307.252, 550.155 311.159, 543.740 317.672 C 535.302 326.238, 530.617 332.661, 526.722 341 C 524.108 346.595, 523.621 348.965, 523.223 358.027 C 522.688 370.223, 524.223 379.225, 528.931 391.500 C 532.546 400.926, 535.465 406, 537.273 406 C 537.990 406, 540.497 403.078, 542.845 399.507 C 547.152 392.956, 551.620 389.208, 574.591 372.879 C 584.173 366.068, 590.165 359.708, 602.264 343.507 C 615.259 326.106, 619.557 322.017, 630.153 316.982 C 644.338 310.241, 655.069 310.445, 669.457 317.729 C 676.779 321.436, 687.966 333.099, 691.778 341 C 694.967 347.609, 697.958 358.308, 697.985 363.198 C 697.993 364.682, 696.869 369.479, 695.486 373.856 C 692.261 384.064, 686.726 390.533, 677.206 395.219 C 670.885 398.331, 669.975 398.499, 659.521 398.480 C 647.088 398.458, 642.861 397.473, 635.041 392.778 C 630.138 389.834, 623 382.237, 623 379.962 C 623 379.477, 625.813 381.209, 629.250 383.810 C 639.552 391.607, 644.782 393.463, 656.500 393.483 C 665.550 393.498, 667.039 393.227, 672.174 390.625 C 680.357 386.479, 684.520 382.680, 687.455 376.681 C 693.444 364.440, 691.415 350.461, 681.781 337.597 C 672.843 325.662, 662.911 320.209, 648.391 319.263 C 640.710 318.764, 639.927 318.911, 633.543 322.054 C 624.443 326.533, 618.243 332.360, 609.768 344.395 C 600.576 357.449, 598.805 359.312, 584.696 370.758 L 572.893 380.335 577.191 381.788 C 588.950 385.763, 602.368 400.402, 607.424 414.774 C 611.311 425.820, 617.320 436.302, 623.558 442.914 C 633.092 453.021, 641.893 457.086, 666 462.518 C 687.156 467.284, 700.037 466.943, 708.107 461.403 C 713.525 457.683, 720.302 447.677, 723.057 439.327 C 724.844 433.912, 731.818 424.276, 735.674 421.892 C 738.154 420.360, 741.674 419.468, 747.146 418.987 C 751.488 418.605, 755.340 417.993, 755.706 417.627 C 756.073 417.260, 756.512 409.657, 756.681 400.730 C 756.851 391.804, 757.718 367.850, 758.608 347.500 C 760.763 298.203, 759.732 238.182, 756.503 225 C 753.209 211.552, 749.354 207.472, 730.839 197.836 C 725.184 194.893, 723.539 194.524, 715.014 194.282 C 707.860 194.079, 703.639 194.521, 698 196.064 M 892.583 226.437 C 890.429 227.230, 887.551 228.994, 886.188 230.357 L 883.710 232.835 885.487 241.300 C 887.730 251.988, 887.192 264.164, 884.131 272 C 882.949 275.025, 879.500 280.839, 876.468 284.919 L 870.953 292.339 878.727 296.797 C 901.065 309.609, 913.001 320.544, 925.795 339.918 C 930.306 346.749, 933.786 352.547, 933.529 352.804 C 932.540 353.794, 927.931 349.764, 919.877 340.865 C 906.565 326.157, 901.287 321.436, 888.500 312.802 C 876.005 304.365, 867.880 300.026, 864.543 300.010 C 863.467 300.004, 860.092 301.748, 857.043 303.885 C 848.891 309.599, 840.090 311.995, 827.145 312.024 C 811.049 312.061, 806.965 313.405, 786.253 325.479 C 776.983 330.883, 775.937 331.788, 775.288 334.976 C 774.893 336.914, 774.607 366.625, 774.651 401 C 774.737 468.059, 775.324 478.872, 779.552 491.328 C 780.891 495.273, 781.989 498.674, 781.993 498.887 C 782.003 499.435, 868.486 498.038, 905.500 496.891 C 982.300 494.513, 989.825 493.967, 1002.691 489.842 C 1010.857 487.224, 1016.249 483.825, 1020.378 478.694 C 1022.970 475.473, 1023.499 473.857, 1023.816 468.194 C 1024.240 460.627, 1022.170 451.213, 1018.511 444.071 C 1015.021 437.260, 1005.414 428.805, 995.500 423.819 C 993.850 422.990, 988.341 420.029, 983.257 417.241 C 969.124 409.489, 965.923 408.500, 954.956 408.500 C 943.412 408.500, 940.663 409.830, 938.942 416.246 C 934.773 431.784, 930.367 436.138, 901.500 453.236 C 871.511 470.999, 859.219 476.007, 845.645 475.990 C 834.297 475.977, 826.429 472.369, 824.581 466.331 C 823.526 462.888, 826.883 462.614, 833.589 465.596 C 838.880 467.949, 840.396 468.175, 848.043 467.750 C 854.833 467.372, 858.397 466.537, 865.404 463.680 C 876.177 459.288, 890.339 451.372, 907.272 440.280 C 920.645 431.519, 925.536 426.466, 928.069 418.792 C 929.157 415.496, 929.096 414.763, 927.598 413.109 C 926.653 412.064, 923.824 410.901, 921.312 410.524 C 914.853 409.555, 914 409.083, 914 406.475 C 914 402.632, 915.074 401.002, 918.873 399.079 C 925.030 395.964, 928.152 395.789, 938.604 397.972 C 944.047 399.109, 954.125 400.461, 961 400.977 C 978.004 402.252, 979.754 402.844, 990.902 411.085 C 992.501 412.268, 994.291 412.938, 994.880 412.574 C 996.480 411.586, 1002.653 398.116, 1005.560 389.273 C 1011.137 372.307, 1011.061 356.435, 1005.328 341.089 C 999.429 325.299, 986.180 307.662, 973.098 298.186 C 967.712 294.284, 964.198 294.138, 956.596 297.500 C 953.487 298.875, 949.943 299.993, 948.721 299.985 C 944.462 299.955, 944.165 299.059, 945.575 290.500 C 948.773 271.099, 945.994 258.189, 935.196 242.288 C 926.937 230.127, 919.101 225.630, 905.500 225.248 C 899.559 225.081, 895.169 225.485, 892.583 226.437 M 565.500 396.900 C 560.711 399.122, 556.863 403.117, 550.477 412.500 C 543.262 423.100, 541.221 425, 537.048 425 C 529.908 425, 519.011 433.290, 514.728 441.980 C 512.807 445.878, 512.524 447.945, 512.672 457 C 512.862 468.576, 515.034 476.734, 519.478 482.560 C 525.804 490.854, 539.289 494.890, 567.500 496.931 C 592.318 498.726, 751.520 499.882, 753.120 498.278 C 756.541 494.851, 758.120 472.424, 756.486 450.500 C 755.463 436.778, 756.255 437.743, 746.350 438.150 L 737.790 438.502 732.518 444.165 C 729.464 447.446, 726.604 451.715, 725.719 454.312 C 723.403 461.108, 717.405 468.462, 711.603 471.620 C 707.580 473.809, 704.860 474.470, 698.512 474.798 C 677.728 475.872, 648.974 469.499, 630.730 459.775 C 622.032 455.139, 611.645 443.570, 604.961 431.072 C 598.282 418.585, 589.073 404.248, 585.873 401.355 C 578.753 394.919, 572.647 393.584, 565.500 396.900 M 1029.464 442.776 C 1033.375 448.701, 1035.001 454.616, 1034.989 462.876 C 1034.968 477.777, 1030.019 486.658, 1017.141 494.903 C 1011.655 498.415, 998.044 502.541, 987.223 503.972 C 982.976 504.533, 966 505.426, 949.500 505.955 C 933 506.484, 912.525 507.157, 904 507.451 C 895.475 507.745, 873.650 508.498, 855.500 509.125 C 816.367 510.476, 608.319 509.631, 581 508.009 C 530.360 505.003, 513.637 498.081, 505.443 476.734 C 501.919 467.552, 500.794 449.823, 503.348 443.710 C 504.200 441.670, 504.626 440, 504.293 440 C 502.501 440, 468.186 450.345, 464.500 451.997 C 463.400 452.490, 460.025 453.914, 457 455.163 C 429.558 466.491, 408.545 488.415, 399.637 515.014 C 394.147 531.406, 391.607 551.445, 390.410 587.794 C 389.648 610.933, 390.938 607.348, 377.480 623.735 C 356.376 649.430, 343.741 671.739, 338.428 692.685 L 335.975 702.353 337.945 722.427 C 341.739 761.103, 342.046 765.750, 342.969 798.500 C 343.930 832.631, 344.517 837.482, 348.880 847.365 C 352.414 855.370, 354.861 857.969, 365.154 864.648 C 374.404 870.651, 375.363 871.604, 381.607 881.013 C 389.627 893.098, 396.859 899.962, 408.141 906.194 C 416.088 910.584, 441.432 919.901, 442.506 918.828 C 443.158 918.175, 437.169 882.807, 431.053 851.191 C 413.278 759.314, 406.357 720.357, 401.880 687 C 400.159 674.181, 399.647 665.258, 399.583 647 C 399.469 614.558, 401.349 605.421, 413.165 581 C 418.747 569.463, 419.923 567.796, 428.429 559.365 C 438.895 548.990, 447.578 544.091, 463.500 539.577 C 488.519 532.484, 540.196 524.755, 580.500 522.077 C 637.092 518.317, 674.807 516.956, 739.500 516.339 C 802.266 515.740, 822.320 516.209, 897 520.019 C 978.269 524.165, 1050.713 533.020, 1076.405 541.947 C 1108.071 552.950, 1129.706 581.203, 1136.467 620.381 C 1138.494 632.126, 1138.483 663.520, 1136.444 685.063 C 1134.173 709.065, 1127.827 744.306, 1106.114 853.500 C 1095.730 905.717, 1094.410 913, 1095.329 913 C 1095.635 913, 1100.749 911.410, 1106.693 909.467 C 1129.808 901.911, 1152.711 888.087, 1164.132 874.797 C 1167.085 871.362, 1174.333 863.365, 1180.240 857.026 C 1199.809 836.025, 1201.158 830.834, 1204.540 763.500 C 1205.768 739.054, 1205.865 729.752, 1204.996 719.500 C 1203.306 699.562, 1200.979 692.878, 1186.545 666.500 C 1173.389 642.458, 1166.822 633.161, 1150.186 615.027 L 1147 611.554 1146.990 600.027 C 1146.957 561.048, 1140.861 525.249, 1130.929 505.705 C 1123.247 490.586, 1110.938 475.594, 1099.650 467.607 C 1093.740 463.424, 1079.614 455.845, 1071.728 452.624 C 1066.559 450.513, 1034.262 440.421, 1030.253 439.664 L 1027.005 439.051 1029.464 442.776 M 729.917 532.375 C 729.688 532.582, 710.375 533.039, 687 533.390 C 640.459 534.090, 632.599 534.384, 601.500 536.581 C 545.554 540.534, 509.688 546.119, 483 555.034 C 462.746 561.800, 446.167 574.778, 439.143 589.368 C 435.533 596.864, 431.496 611.590, 429.923 623 C 428.242 635.190, 428.463 658.681, 430.366 670.138 C 432.545 683.253, 438.373 702.118, 442.680 710 C 453.541 729.877, 473.553 750.936, 498.024 768.240 C 521.669 784.960, 551.867 795.066, 583 796.679 C 617.350 798.459, 663.584 783.939, 676.832 767.212 C 681.937 760.767, 687.638 749.243, 694.032 732.447 C 708.041 695.647, 709.910 691.980, 719.548 682.380 C 731.474 670.501, 743.955 665.552, 764.880 664.404 C 787.225 663.179, 803.212 668.018, 814.515 679.428 C 821.723 686.703, 824.504 691.906, 836.204 720 C 841.128 731.825, 847.001 745.223, 849.253 749.773 C 856.636 764.683, 868.781 775.592, 886.786 783.485 C 918.144 797.232, 952.932 800.320, 987.351 792.413 C 1038.198 780.732, 1075.891 755.373, 1093.420 721.054 C 1105.031 698.321, 1109.388 678.810, 1109.400 649.500 C 1109.408 628.771, 1107.449 613.662, 1103.078 600.731 C 1099.412 589.885, 1097.761 586.772, 1091.668 579.220 C 1078.350 562.711, 1057.176 553.624, 1014.460 546.087 C 988.566 541.518, 937.053 536.991, 888.500 535.018 C 834.114 532.808, 731.337 531.095, 729.917 532.375 M 759.229 717.750 C 754.757 720.770, 749.786 726.569, 747.015 732 C 746.033 733.925, 742.427 742.429, 739.002 750.897 C 732.287 767.500, 729.245 773.235, 722.504 781.994 C 705.300 804.353, 665.238 826.382, 627.903 834.014 C 603.351 839.032, 570.259 838.385, 544.034 832.373 C 523.391 827.641, 493.782 814.705, 475.580 802.467 C 462.010 793.343, 446.549 778.519, 437.024 765.500 C 434.609 762.200, 432.340 759.275, 431.981 759 C 431.623 758.725, 430.819 757.600, 430.195 756.500 C 429.119 754.603, 429.059 754.598, 429.030 756.391 C 428.992 758.797, 433.341 782.551, 441.501 824.500 C 445.032 842.650, 449.084 863.800, 450.506 871.500 C 451.928 879.200, 454.631 893.375, 456.512 903 C 458.393 912.625, 461.133 926.800, 462.602 934.500 C 469.943 972.986, 484.442 991.832, 520.500 1009.754 C 538.092 1018.498, 576.367 1031.525, 605 1038.515 C 630.308 1044.693, 690.814 1055.216, 724 1059.212 C 747.032 1061.985, 789.067 1062.189, 811.500 1059.638 C 861.926 1053.903, 922.119 1042.560, 956 1032.408 C 1005.208 1017.662, 1025.934 1007.651, 1044.059 989.875 C 1055.901 978.261, 1064.598 964.416, 1070.678 947.500 C 1072.502 942.428, 1079.570 908.417, 1086.059 873.500 C 1088.818 858.650, 1091.692 844.025, 1092.444 841 C 1093.197 837.975, 1095.229 828.075, 1096.960 819 C 1098.690 809.925, 1101.844 793.725, 1103.967 783 C 1108.958 757.794, 1109.380 754.921, 1107.743 757.326 C 1092.987 779.003, 1079.153 792.867, 1060.500 804.671 C 1027.101 825.807, 987.978 837, 947.500 837 C 915.189 837, 885.392 830.064, 855.500 815.584 C 823.899 800.277, 810.961 785.786, 796.945 750 C 789.567 731.163, 784.313 723.057, 776.114 717.857 C 770.118 714.055, 764.751 714.021, 759.229 717.750 M 677.678 1113.618 C 677.325 1138.515, 677.325 1164.592, 677.678 1171.566 L 678.321 1184.248 685.095 1188.630 C 706.025 1202.169, 722.453 1208.549, 746.563 1212.501 C 762.773 1215.157, 787.761 1214.087, 807 1209.913 C 823.339 1206.368, 847.672 1194.480, 858.784 1184.616 L 861.067 1182.588 860.784 1125.795 C 860.628 1094.559, 860.253 1069.002, 859.950 1069.001 C 859.648 1069, 851.548 1070.142, 841.950 1071.537 C 832.353 1072.932, 818.200 1074.745, 810.500 1075.567 C 793.676 1077.361, 750.274 1077.636, 734.500 1076.048 C 723.279 1074.918, 691.205 1070.640, 682.910 1069.167 L 678.321 1068.351 677.678 1113.618 M 647.663 1141.615 C 641.702 1142.927, 631.352 1144.861, 624.663 1145.914 C 566.271 1155.104, 529.712 1163.104, 509.045 1171.215 C 479.263 1182.904, 461.230 1195.877, 453.772 1210.979 C 450.391 1217.826, 450.571 1231.217, 454.159 1239.779 C 458.381 1249.851, 462.927 1256.608, 472 1266.295 C 487.012 1282.323, 510.173 1298.778, 545.500 1318.515 C 587.202 1341.814, 637.879 1360.229, 680 1367.391 C 721.656 1374.473, 758.203 1376.459, 800.716 1373.951 C 870.231 1369.849, 927.390 1354.210, 978 1325.445 C 1031.323 1295.137, 1060.762 1271.614, 1075.147 1247.821 C 1082.054 1236.397, 1083.432 1231.731, 1082.593 1222.608 C 1081.832 1214.330, 1077.217 1204.764, 1070.790 1198.142 C 1057.589 1184.541, 1026.374 1168.810, 999.300 1162.114 C 986.966 1159.064, 951.814 1151.992, 939.500 1150.083 C 927.731 1148.259, 884.568 1140.689, 878.634 1139.409 L 875.768 1138.790 876.436 1164.145 C 876.803 1178.090, 876.742 1189.956, 876.302 1190.514 C 869.878 1198.637, 837.931 1216.903, 818.930 1223.315 C 796.451 1230.901, 756.396 1232.110, 731.884 1225.942 C 707.664 1219.848, 681.816 1207.239, 665.721 1193.668 L 660.844 1189.555 661.172 1164.544 C 661.456 1142.885, 661.299 1139.513, 660 1139.382 C 659.175 1139.299, 653.623 1140.304, 647.663 1141.615" stroke="none" fill="#020202" fill-rule="evenodd"/><path d="M 289.500 194.653 C 286.750 197.164, 282.112 200.299, 279.194 201.621 C 275.068 203.490, 273.557 204.815, 272.402 207.580 C 270.303 212.603, 263.659 219.476, 257.487 223.007 C 251.692 226.323, 246.882 231.694, 242.422 239.829 C 239.889 244.449, 238.678 245.534, 233.326 247.982 C 227.636 250.584, 226.911 251.291, 224.076 257.005 C 220.296 264.624, 220.255 265.404, 223.683 264.543 C 227.052 263.698, 231.269 260.197, 236.840 253.622 C 241.483 248.143, 259.174 231.538, 275.500 217.336 C 289.070 205.532, 300 194.813, 300 193.310 C 300 192.096, 296.930 189.956, 295.316 190.045 C 294.867 190.069, 292.250 192.143, 289.500 194.653 M 208.528 273.451 C 203.645 275.944, 202.382 277.117, 201.595 279.886 C 201.066 281.748, 198.465 285.439, 195.816 288.088 C 193.167 290.737, 191 293.359, 191 293.913 C 191 294.468, 190.059 295.799, 188.909 296.870 C 186.695 298.933, 186.632 302.045, 188.791 302.764 C 190.404 303.301, 209.105 285.056, 213.068 279.079 C 215.916 274.783, 216.780 271.490, 215.250 270.760 C 214.838 270.564, 211.813 271.774, 208.528 273.451 M 131.375 374.750 C 129.490 380.615, 128.289 382.898, 125.320 386.253 C 123.494 388.317, 122 390.739, 122 391.635 C 122 392.531, 121.119 394.690, 120.042 396.433 C 118.868 398.331, 118.314 400.483, 118.658 401.801 C 120.264 407.940, 127.550 400.578, 136.008 384.269 C 139.546 377.446, 140.061 375.778, 139.016 374.519 C 137.247 372.388, 132.084 372.544, 131.375 374.750 M 112.314 411.950 C 108.294 414.402, 107 416.818, 107 421.875 C 107 426.683, 108.402 427.850, 111.171 425.348 C 113.746 423.022, 118 414.727, 118 412.033 C 118 409.487, 116.392 409.464, 112.314 411.950 M 98.560 434.349 C 95.443 437.466, 93.279 446.784, 94.947 449.901 C 95.963 451.799, 96.376 451.935, 97.741 450.815 C 103.943 445.722, 107.746 432, 102.955 432 C 101.830 432, 99.852 433.057, 98.560 434.349 M 1028 439.695 C 1028 439.968, 1028.847 441.386, 1029.882 442.846 C 1034.905 449.932, 1036.583 465.307, 1033.474 475.774 C 1029.256 489.979, 1014.691 499.448, 990.682 503.597 C 983.260 504.879, 967.695 505.621, 907.500 507.563 C 896.500 507.918, 878.275 508.548, 867 508.963 C 840.594 509.934, 652.997 509.908, 608 508.927 C 542.739 507.504, 521.568 502.669, 510.589 486.678 C 504.700 478.100, 501.810 468.227, 501.756 456.500 C 501.731 451, 502.238 445.200, 502.883 443.611 C 503.528 442.023, 503.931 440.601, 503.778 440.452 C 503.151 439.840, 469.835 450.047, 461.390 453.439 C 428.498 466.649, 407.243 488.972, 398.502 519.487 C 393.689 536.290, 392.135 550.601, 390.383 594.267 L 389.790 609.035 380.382 620.267 C 363.988 639.840, 351.070 659.835, 343.728 677 C 337.206 692.250, 335.812 702.788, 337.970 720.526 C 340.488 741.219, 342.176 767.318, 342.949 797.500 C 343.895 834.432, 344.552 838.823, 350.886 850.580 C 354.345 857, 355.369 858.006, 365.057 864.500 C 374.852 871.065, 375.884 872.090, 381.692 881 C 390.270 894.161, 397.582 900.665, 411.362 907.391 C 421.413 912.297, 432.761 916.616, 440.275 918.394 C 442.770 918.984, 443.002 918.821, 442.565 916.775 C 442.297 915.524, 440.914 907.300, 439.491 898.500 C 438.068 889.700, 435.365 874.625, 433.485 865 C 430.642 850.448, 423.107 811.014, 415.522 771 C 412.757 756.412, 404.230 705.056, 402.571 693 C 397.560 656.586, 397.737 625.829, 403.070 606.116 C 405.352 597.679, 413.643 578.122, 417.627 571.776 C 426.113 558.258, 440.596 546.921, 456.051 541.697 C 463.079 539.322, 478.593 535.396, 488 533.612 C 496.988 531.908, 539.687 525.566, 549 524.552 C 570.515 522.208, 634.978 518.407, 669.986 517.417 C 681.819 517.082, 702.075 516.453, 715 516.019 C 790.213 513.494, 938.721 520.096, 1008 529.045 C 1052.664 534.814, 1074.232 539.523, 1088.039 546.520 C 1099.091 552.120, 1113.453 565.787, 1121.418 578.284 C 1138.765 605.499, 1142.807 646.958, 1133.981 707.139 C 1131.560 723.649, 1120.707 781.173, 1109.008 839.500 C 1098.578 891.506, 1094.708 912.041, 1095.239 912.572 C 1096.668 914.001, 1125.336 902.673, 1137.044 896.052 C 1149.951 888.754, 1154.369 884.855, 1175.081 862.489 C 1193.595 842.497, 1195.005 840.318, 1198.457 826.366 C 1201.959 812.214, 1202.542 804.759, 1205.372 738 C 1205.809 727.689, 1204.309 708.755, 1202.494 701.671 C 1200.638 694.427, 1195.163 681.844, 1190.059 673.092 C 1187.945 669.466, 1184.300 662.900, 1181.961 658.500 C 1174.160 643.827, 1165.907 632.426, 1152.798 618.213 L 1147 611.927 1146.923 600.213 C 1146.881 593.771, 1146.721 587.825, 1146.566 587 C 1146.412 586.175, 1145.973 579.732, 1145.591 572.683 C 1144.399 550.700, 1139.003 523.844, 1133.092 510.473 C 1126.318 495.148, 1112.247 476.865, 1100.642 468.308 C 1093.670 463.167, 1078.872 455.538, 1068.500 451.737 C 1053.181 446.123, 1028 438.636, 1028 439.695 M 85.368 460.988 C 83.309 461.819, 82.554 463.940, 80.471 474.739 C 79.797 478.232, 79.164 478.891, 75.868 479.525 C 74.692 479.752, 73.612 480.064, 73.469 480.219 C 73.326 480.373, 72.961 483.650, 72.658 487.500 C 72.355 491.350, 71.459 496.614, 70.667 499.198 C 69.370 503.429, 69.390 504.043, 70.864 505.377 C 74.481 508.651, 76.847 505.028, 86.847 480.908 C 94.408 462.668, 94.851 459.957, 90.250 460.063 C 88.737 460.098, 86.541 460.514, 85.368 460.988 M 31.557 623.223 C 30.701 624.445, 30 626.223, 30 627.173 C 30 628.123, 29.212 629.341, 28.250 629.879 C 25.673 631.321, 24.238 646.170, 24.660 667.046 C 24.950 681.391, 25.292 684.665, 26.660 686.177 C 28.808 688.551, 29.643 688.476, 31.424 685.750 C 34.118 681.628, 40.629 634.681, 39.527 627.330 C 38.606 621.187, 34.474 619.058, 31.557 623.223 M 761.469 716.399 C 757.095 718.305, 749.556 727.129, 746.168 734.308 C 744.561 737.714, 741.318 745.450, 738.962 751.500 C 728.704 777.833, 718.215 790.976, 695.500 805.961 C 677.526 817.820, 661.549 825.075, 639.025 831.608 C 610.919 839.759, 571.577 839.681, 539.657 831.411 C 518.719 825.986, 488.985 812.263, 472.069 800.216 C 457.606 789.916, 439.286 770.792, 430.214 756.523 C 429.092 754.760, 429.006 755.078, 429.539 759 C 430.376 765.159, 438.034 806.178, 444.008 836.500 C 446.717 850.250, 450.277 868.925, 451.920 878 C 453.563 887.075, 456.034 899.939, 457.410 906.588 C 458.787 913.236, 460.876 924.261, 462.054 931.088 C 468.398 967.875, 480.350 986.080, 509.626 1003.549 C 533.669 1017.896, 586.439 1035.435, 632.500 1044.387 C 656.364 1049.025, 700.697 1056.216, 719.310 1058.468 C 759.948 1063.384, 794.248 1062.546, 842.500 1055.457 C 928.063 1042.886, 993.067 1024.747, 1025.911 1004.276 C 1046.521 991.430, 1063.894 968.873, 1070.977 945.761 C 1072.670 940.238, 1080.836 900.447, 1088.372 861 C 1089.790 853.575, 1092.298 840.975, 1093.945 833 C 1098.716 809.897, 1108.909 757.792, 1108.984 756.131 C 1108.993 755.928, 1105.457 760.658, 1101.127 766.641 C 1074.676 803.193, 1027.405 828.900, 974.500 835.504 C 957.379 837.641, 926.897 837.141, 912 834.479 C 874.760 827.824, 836.508 809.738, 820.065 791.011 C 809.547 779.031, 804.348 769.864, 796.864 750.095 C 786.467 722.634, 774.125 710.885, 761.469 716.399 M 677.750 1100.750 C 677.612 1118.213, 677.665 1143.750, 677.866 1157.500 C 678.178 1178.831, 678.471 1182.771, 679.861 1184.349 C 684.782 1189.935, 711.121 1203.605, 724.323 1207.425 C 744.283 1213.200, 771.563 1215.667, 787.066 1213.100 C 790.055 1212.605, 795.875 1211.664, 800 1211.009 C 817.142 1208.286, 840.240 1198.496, 854.349 1187.973 L 861.197 1182.865 860.476 1126.183 C 860.079 1095.007, 859.691 1069.419, 859.614 1069.320 C 859.537 1069.222, 852.055 1070.220, 842.987 1071.538 C 789.208 1079.359, 756.082 1079.599, 705 1072.537 C 690.975 1070.599, 679.163 1069.010, 678.750 1069.006 C 678.337 1069.003, 677.888 1083.287, 677.750 1100.750 M 651.500 1141.065 C 647.100 1142.068, 637.875 1143.823, 631 1144.965 C 541.889 1159.765, 520.897 1164.917, 492.128 1179.043 C 471.219 1189.310, 461.565 1197.316, 454.356 1210.365 C 451.820 1214.955, 451.523 1216.456, 451.551 1224.500 C 451.579 1232.397, 451.985 1234.442, 454.861 1241.192 C 461.087 1255.804, 475.903 1272.551, 495.210 1286.802 C 504.895 1293.950, 526.947 1307.911, 542.644 1316.832 C 582.914 1339.719, 636.544 1359.568, 678 1366.930 C 715.083 1373.515, 752.209 1375.920, 790.225 1374.199 C 870.633 1370.559, 927.301 1355.024, 986.103 1320.501 C 1038.986 1289.452, 1063.289 1269.108, 1077 1244.408 C 1082.467 1234.560, 1082.500 1234.449, 1082.482 1226 C 1082.466 1218.589, 1082.067 1216.667, 1079.371 1211 C 1073.105 1197.827, 1061.461 1188.151, 1037.500 1176.206 C 1015.536 1165.255, 991.808 1159.141, 932 1149.021 C 908.583 1145.058, 883.109 1140.523, 878.192 1139.441 L 875.884 1138.933 876.588 1164.748 L 877.293 1190.564 869.896 1196.165 C 849.148 1211.879, 824.655 1223.333, 802.500 1227.684 C 789.527 1230.232, 751.282 1230.210, 738.500 1227.647 C 713.179 1222.571, 683.945 1208.960, 665.750 1193.777 L 661 1189.814 661 1164.407 C 661 1150.433, 660.663 1139.054, 660.250 1139.121 C 659.837 1139.187, 655.900 1140.062, 651.500 1141.065 M 392.500 1241.002 C 383.430 1242.366, 378.630 1244.090, 367 1250.166 C 353.387 1257.277, 349.261 1260.498, 339.574 1271.577 C 332.138 1280.083, 327.221 1288.335, 322.120 1300.869 C 318.870 1308.857, 318.724 1308.398, 326.500 1314.661 C 358.504 1340.440, 399.992 1368.009, 433.500 1385.766 C 441.750 1390.137, 451.589 1395.377, 455.364 1397.410 C 459.139 1399.443, 462.343 1400.969, 462.485 1400.803 C 462.875 1400.344, 457.234 1350.361, 456.018 1343.500 C 455.433 1340.200, 452.281 1318.150, 449.014 1294.500 C 442.152 1244.835, 443.748 1248.984, 429.826 1244.611 C 416.398 1240.393, 404.313 1239.225, 392.500 1241.002 M 1113.500 1250.431 C 1101.704 1252.762, 1093.037 1256.488, 1090.539 1260.301 C 1089.573 1261.775, 1088.003 1271.926, 1086.020 1289.530 C 1084.349 1304.363, 1082.067 1322.800, 1080.949 1330.500 C 1078.972 1344.117, 1073.849 1400.156, 1074.518 1400.843 C 1074.702 1401.031, 1079.048 1398.951, 1084.176 1396.219 C 1089.304 1393.488, 1098 1388.871, 1103.500 1385.961 C 1140.452 1366.406, 1215 1315, 1215 1309.074 C 1215 1306.720, 1203.855 1290.534, 1198.179 1284.646 C 1189.122 1275.250, 1174.144 1264.565, 1160.307 1257.628 C 1146.653 1250.782, 1127.007 1247.761, 1113.500 1250.431 M 1063 1286.209 C 1052.145 1296.344, 1019.856 1319.961, 1006.080 1327.841 C 1004.790 1328.579, 997.908 1332.531, 990.786 1336.623 C 933.863 1369.331, 866.150 1390.130, 803.500 1394.151 C 767.036 1396.491, 721.627 1394.203, 690 1388.431 C 664.082 1383.702, 626.375 1373.171, 611.500 1366.508 C 609.850 1365.769, 606.475 1364.404, 604 1363.474 C 592.981 1359.335, 571.614 1350.155, 562 1345.429 C 528.514 1328.967, 489.126 1303.935, 471.815 1288.114 C 468.737 1285.301, 465.930 1283, 465.575 1283 C 464.807 1283, 465.051 1285.120, 470.127 1322.500 C 472.292 1338.450, 475.399 1361.625, 477.031 1374 C 480.503 1400.329, 481.654 1407.631, 482.567 1409.109 C 484.907 1412.895, 540.597 1433.890, 572.309 1442.941 C 624.238 1457.762, 670.501 1465.890, 726 1469.942 C 744.691 1471.307, 808.346 1470.465, 829 1468.580 C 887.143 1463.272, 950.373 1449.600, 1002 1431.171 C 1019.483 1424.931, 1051.981 1411.653, 1052.007 1410.740 C 1052.010 1410.608, 1052.941 1405.325, 1054.075 1399 C 1057.493 1379.940, 1061.867 1352.378, 1063.915 1337 C 1067.886 1307.181, 1071.183 1279.850, 1070.847 1279.534 C 1070.656 1279.354, 1067.125 1282.358, 1063 1286.209" stroke="none" fill="#c9c9c9" fill-rule="evenodd"/><path d="M 299.725 186.018 C 296.105 189.743, 296.033 189.947, 297.975 190.987 C 299.089 191.583, 300 192.605, 300 193.258 C 300 193.912, 297.188 197.343, 293.750 200.883 L 287.500 207.320 296 200.007 C 305.734 191.633, 309.939 185.837, 307.988 183.485 C 306.043 181.142, 303.794 181.831, 299.725 186.018 M 818 194.008 C 807.288 195.536, 799.420 198.776, 790.980 205.136 C 781.458 212.311, 778.476 217.247, 777.025 228.232 C 775.203 242.028, 773.918 319.254, 775.485 320.816 C 775.862 321.192, 781.518 318.673, 788.054 315.217 C 805.291 306.102, 806.097 305.884, 825.500 305.083 C 839.402 304.510, 843.320 304.012, 847 302.353 C 856.411 298.110, 869.792 283.157, 876.800 269.052 C 880.497 261.609, 880.500 261.594, 880.500 248.552 C 880.500 236.490, 880.299 235.083, 877.854 230 C 876.398 226.975, 874.543 222.925, 873.730 221 C 870.437 213.197, 860.482 203.812, 849.707 198.352 C 842.282 194.589, 827.820 192.608, 818 194.008 M 698 196.064 C 675.713 202.163, 665.837 212.868, 657.927 239.500 C 655.235 248.566, 654.584 252.657, 654.227 262.768 C 653.676 278.349, 653.787 278.535, 667.498 284.953 C 678.820 290.254, 685.806 295.906, 690.959 303.936 C 694.724 309.804, 694.867 311.597, 691.223 307.255 C 687.962 303.369, 673.422 294.019, 670.541 293.954 C 669.418 293.929, 665.125 292.242, 661 290.204 C 655.003 287.242, 652.863 285.546, 650.319 281.740 C 644.347 272.804, 643.610 259.662, 648.050 241.294 L 650.166 232.540 647.567 230.304 C 644.066 227.292, 637.924 225.749, 629.571 225.783 C 623.537 225.808, 621.667 226.308, 615.105 229.656 C 609.144 232.696, 606.377 234.922, 601.870 240.301 C 593.610 250.160, 591.289 256.703, 589.934 273.957 C 588.586 291.114, 588.039 293.401, 585.184 293.819 C 583.492 294.067, 582.298 293.004, 579.852 289.069 C 578.119 286.281, 576.073 284, 575.305 284 C 573.059 284, 569.097 288.593, 566.463 294.251 C 562.120 303.579, 563.431 320.157, 569.559 333.422 C 574.259 343.594, 573.840 345.560, 568.151 340.034 C 562.465 334.511, 559.377 327.440, 558.171 317.180 C 557.633 312.604, 556.948 308.615, 556.649 308.316 C 555.628 307.294, 549.373 311.930, 542.933 318.481 C 534.367 327.196, 527.517 337.585, 525.032 345.633 C 521.019 358.624, 522.887 376.869, 529.981 393.990 C 533.641 402.822, 535.580 406, 537.311 406 C 538.007 406, 540.497 403.078, 542.845 399.507 C 547.152 392.956, 551.620 389.208, 574.591 372.879 C 584.173 366.068, 590.165 359.708, 602.264 343.507 C 615.259 326.106, 619.557 322.017, 630.153 316.982 C 644.338 310.241, 655.069 310.445, 669.457 317.729 C 676.779 321.436, 687.966 333.099, 691.778 341 C 694.967 347.609, 697.958 358.308, 697.985 363.198 C 697.993 364.682, 696.869 369.479, 695.486 373.856 C 690.754 388.834, 678.959 397.870, 662.929 398.798 C 645.918 399.783, 632.447 394.324, 624.931 383.400 C 623.213 380.903, 621.991 378.675, 622.216 378.450 C 622.441 378.225, 624.622 379.857, 627.063 382.076 C 629.503 384.296, 634.851 387.774, 638.946 389.806 C 646.041 393.326, 646.864 393.500, 656.446 393.500 C 665.538 393.500, 667.043 393.225, 672.174 390.625 C 680.357 386.479, 684.520 382.680, 687.455 376.681 C 693.444 364.440, 691.415 350.461, 681.781 337.597 C 672.843 325.662, 662.911 320.209, 648.391 319.263 C 640.710 318.764, 639.927 318.911, 633.543 322.054 C 624.443 326.533, 618.243 332.360, 609.768 344.395 C 600.576 357.449, 598.805 359.312, 584.696 370.758 L 572.893 380.335 577.191 381.788 C 589.052 385.797, 602.324 400.277, 607.424 414.774 C 611.311 425.820, 617.320 436.302, 623.558 442.914 C 633.092 453.021, 641.893 457.086, 666 462.518 C 687.156 467.284, 700.037 466.943, 708.107 461.403 C 713.525 457.683, 720.302 447.677, 723.057 439.327 C 724.844 433.912, 731.818 424.276, 735.674 421.892 C 738.154 420.360, 741.674 419.468, 747.146 418.987 C 751.488 418.605, 755.340 417.993, 755.706 417.627 C 756.073 417.260, 756.512 409.657, 756.681 400.730 C 756.851 391.804, 757.718 367.850, 758.608 347.500 C 760.763 298.203, 759.732 238.182, 756.503 225 C 753.209 211.552, 749.354 207.472, 730.839 197.836 C 725.184 194.893, 723.539 194.524, 715.014 194.282 C 707.860 194.079, 703.639 194.521, 698 196.064 M 894.235 225.663 C 892.990 225.927, 892.225 226.556, 892.537 227.060 C 892.849 227.564, 892.448 227.725, 891.647 227.418 C 890.836 227.107, 888.745 228.150, 886.933 229.768 L 883.677 232.677 885.470 241.221 C 887.730 251.990, 887.201 264.139, 884.131 272 C 882.949 275.025, 879.500 280.839, 876.468 284.919 L 870.953 292.339 878.727 296.797 C 900.572 309.327, 912.915 320.528, 925.230 339 C 929.446 345.325, 933.213 351.340, 933.600 352.366 C 934.992 356.059, 930.352 352.232, 920.823 341.828 C 906.109 325.762, 901.307 321.450, 888.500 312.802 C 876.005 304.365, 867.880 300.026, 864.543 300.010 C 863.467 300.004, 860.092 301.748, 857.043 303.885 C 848.891 309.599, 840.090 311.995, 827.145 312.024 C 811.049 312.061, 806.965 313.405, 786.253 325.479 C 776.983 330.883, 775.937 331.788, 775.288 334.976 C 774.893 336.914, 774.607 366.625, 774.651 401 C 774.737 468.059, 775.324 478.872, 779.552 491.328 C 780.891 495.273, 781.989 498.674, 781.993 498.887 C 781.997 499.100, 802.813 498.954, 828.250 498.563 C 901.971 497.429, 977.848 494.839, 989.191 493.069 C 997.652 491.749, 1008.429 488.286, 1013.120 485.381 C 1017.552 482.636, 1023.202 475.968, 1022.545 474.256 C 1022.280 473.565, 1022.408 473, 1022.830 473 C 1024.018 473, 1023.423 458.041, 1022.035 453.017 C 1018.671 440.832, 1009.698 430.960, 995.500 423.819 C 993.850 422.990, 988.341 420.029, 983.257 417.241 C 969.124 409.489, 965.923 408.500, 954.956 408.500 C 943.412 408.500, 940.663 409.830, 938.942 416.246 C 934.773 431.784, 930.367 436.138, 901.500 453.236 C 871.511 470.999, 859.219 476.007, 845.645 475.990 C 836.873 475.980, 830.237 473.686, 824.953 468.837 C 823.552 467.552, 823.004 466.904, 823.735 467.399 C 824.813 468.128, 824.862 467.768, 823.995 465.486 C 823.407 463.940, 823.280 462.325, 823.713 461.898 C 824.146 461.472, 827.650 462.694, 831.500 464.615 C 838.232 467.973, 838.845 468.091, 847.507 467.705 C 854.982 467.372, 858.021 466.690, 865.368 463.694 C 876.175 459.288, 890.323 451.383, 907.272 440.280 C 920.645 431.519, 925.536 426.466, 928.069 418.792 C 929.157 415.496, 929.096 414.763, 927.598 413.109 C 926.653 412.064, 923.824 410.901, 921.312 410.524 C 914.853 409.555, 914 409.083, 914 406.475 C 914 402.558, 915.090 400.995, 919.328 398.833 C 924.793 396.044, 930.211 395.848, 939.642 398.098 C 943.964 399.129, 953.350 400.409, 960.500 400.942 C 978.039 402.251, 979.703 402.806, 990.902 411.085 C 992.501 412.268, 994.291 412.938, 994.880 412.574 C 996.480 411.586, 1002.653 398.116, 1005.560 389.273 C 1011.137 372.307, 1011.061 356.435, 1005.328 341.089 C 999.429 325.299, 986.180 307.662, 973.098 298.186 C 967.712 294.284, 964.198 294.138, 956.596 297.500 C 953.487 298.875, 949.943 299.993, 948.721 299.985 C 944.462 299.955, 944.165 299.059, 945.575 290.500 C 948.069 275.370, 947.113 265.728, 941.993 254.363 C 938.467 246.537, 932.138 237.206, 927.731 233.337 C 921.171 227.577, 915.444 225.518, 905.500 225.342 C 900.550 225.255, 895.481 225.400, 894.235 225.663 M 247 243.317 C 242.875 247.318, 236.711 253.554, 233.302 257.175 C 227.471 263.366, 222.002 266.506, 221.206 264.119 C 221.017 263.552, 219.586 264.541, 218.027 266.317 C 216.025 268.596, 215.330 270.278, 215.665 272.031 C 215.974 273.642, 215.222 275.916, 213.523 278.507 L 210.906 282.500 215.028 278 C 219.861 272.724, 227.128 265.112, 243.432 248.250 C 249.946 241.512, 255.101 236.009, 254.888 236.021 C 254.675 236.032, 251.125 239.316, 247 243.317 M 200.302 293.113 C 194.693 298.662, 189.518 303.008, 188.802 302.772 C 188.086 302.536, 187.363 301.415, 187.195 300.280 C 186.823 297.768, 183.459 298.274, 181.965 301.065 C 180.558 303.694, 184.793 308.518, 187.698 307.596 C 188.842 307.233, 193.512 302.788, 198.075 297.718 C 202.639 292.648, 207.498 287.262, 208.873 285.750 C 214.161 279.935, 210.072 283.448, 200.302 293.113 M 135 372 L 132.500 372.801 135.128 372.900 C 138.334 373.022, 140.235 375.098, 139.454 377.623 C 139.134 378.655, 139.606 378.232, 140.503 376.683 C 141.781 374.476, 141.876 373.556, 140.945 372.433 C 139.642 370.864, 138.751 370.799, 135 372 M 565.500 396.866 C 560.952 398.937, 555.787 404.302, 550.727 412.213 C 544.494 421.957, 541.258 425, 537.132 425 C 529.910 425, 519.034 433.243, 514.728 441.980 C 512.842 445.806, 512.516 448.043, 512.604 456.555 C 512.725 468.313, 515.268 477.443, 520.031 483.221 C 527.113 491.813, 544.388 496.099, 577.500 497.480 C 612.587 498.943, 751.826 499.575, 753.121 498.277 C 756.541 494.851, 758.120 472.422, 756.486 450.500 C 755.463 436.778, 756.255 437.743, 746.350 438.150 L 737.790 438.502 732.518 444.165 C 729.464 447.446, 726.604 451.715, 725.719 454.312 C 723.337 461.303, 717.219 468.811, 711.500 471.762 C 697.204 479.138, 655.424 472.937, 630.730 459.775 C 622.032 455.139, 611.645 443.570, 604.961 431.072 C 598.282 418.585, 589.073 404.248, 585.873 401.355 C 578.770 394.934, 572.685 393.593, 565.500 396.866 M 125.922 400.019 C 122.163 404.202, 119.030 405.205, 118.956 402.250 C 118.930 401.210, 118.109 402.021, 116.932 404.250 C 115.316 407.310, 114.400 408, 111.951 408 C 108.796 408, 107 410.643, 107 415.288 L 107 417.445 108.561 415.217 C 110.111 413.003, 114.941 410, 116.950 410 C 119.795 410, 115.483 421.452, 111.171 425.348 C 108.391 427.860, 107.023 426.693, 106.881 421.691 C 106.763 417.515, 106.759 417.520, 105.781 423 C 105.242 426.025, 104.100 429.288, 103.245 430.250 C 101.834 431.838, 101.843 432, 103.345 432 C 106.215 432, 105.513 439.802, 102.171 445.054 C 98.259 451.202, 96.440 452.609, 95.222 450.432 C 94.429 449.016, 93.987 449.348, 92.391 452.558 C 91.351 454.650, 89.713 456.731, 88.750 457.181 C 84.248 459.288, 83.593 459.720, 83.224 460.829 C 82.930 461.710, 83.511 461.756, 85.479 461.008 C 89.169 459.605, 92.690 459.750, 93.297 461.331 C 93.578 462.063, 92.983 465.095, 91.976 468.070 C 89.120 476.507, 90.322 474.951, 94.529 464.767 C 101.492 447.908, 122.300 407.108, 128.196 398.750 C 130.904 394.912, 130.118 395.350, 125.922 400.019 M 78 500.879 C 78 501.545, 76.849 503.242, 75.443 504.648 C 72.987 507.104, 72.807 507.136, 70.943 505.448 C 69.057 503.742, 69 503.785, 69 506.911 C 69 509.832, 69.255 510.103, 71.737 509.816 C 73.778 509.580, 75.077 508.405, 76.845 505.191 C 78.148 502.821, 78.942 500.608, 78.608 500.274 C 78.273 499.940, 78 500.212, 78 500.879 M 753.807 515.747 C 760.576 515.921, 771.376 515.920, 777.807 515.746 C 784.238 515.572, 778.700 515.431, 765.500 515.431 C 752.300 515.432, 747.038 515.574, 753.807 515.747 M 33.750 619.083 C 32.788 620.138, 32 621.183, 32 621.406 C 32 621.630, 32.788 621.608, 33.750 621.358 C 36.792 620.569, 38.925 623.233, 39.867 629 L 40.766 634.500 40.883 627.973 C 41.053 618.513, 37.880 614.560, 33.750 619.083 M 1138.349 653 C 1138.349 657.675, 1138.522 659.587, 1138.732 657.250 C 1138.943 654.913, 1138.943 651.087, 1138.732 648.750 C 1138.522 646.413, 1138.349 648.325, 1138.349 653 M 33.079 681.639 C 33.036 682.816, 32.143 684.837, 31.095 686.131 L 29.191 688.483 26.947 686.491 L 24.704 684.500 25.396 688.950 C 26.332 694.973, 27.709 696.573, 30.097 694.412 C 32.062 692.634, 34.598 683.132, 33.708 680.886 C 33.369 680.031, 33.128 680.320, 33.079 681.639 M 661.349 1152 C 661.349 1156.675, 661.522 1158.588, 661.732 1156.250 C 661.943 1153.912, 661.943 1150.088, 661.732 1147.750 C 661.522 1145.412, 661.349 1147.325, 661.349 1152 M 760.299 1471.745 C 765.139 1471.929, 772.789 1471.928, 777.299 1471.743 C 781.810 1471.558, 777.850 1471.408, 768.500 1471.409 C 759.150 1471.410, 755.460 1471.562, 760.299 1471.745" stroke="none" fill="#e340d3" fill-rule="evenodd"/><path d="M 729.917 532.380 C 729.688 532.590, 709.700 533.070, 685.500 533.449 C 631.994 534.285, 589 536.422, 589 538.244 C 589 538.771, 586.470 539.004, 583.250 538.773 C 577.719 538.377, 541.894 541.892, 529.500 544.046 C 483.879 551.977, 462.621 560.553, 447.692 577.050 C 435.186 590.871, 428.742 614.334, 428.758 646 C 428.766 663.114, 430.543 675.057, 435.548 691.638 C 441.300 710.698, 451.160 726.305, 467.874 742.809 C 487.610 762.297, 506.423 775.575, 525.469 783.459 C 559.285 797.457, 593.072 800.497, 624.776 792.395 C 645.766 787.031, 656.847 782.561, 668.132 774.906 C 678.167 768.099, 684.267 758.099, 694.032 732.447 C 708.041 695.647, 709.910 691.980, 719.548 682.380 C 731.474 670.501, 743.955 665.552, 764.880 664.404 C 787.225 663.179, 803.212 668.018, 814.515 679.428 C 821.723 686.703, 824.504 691.906, 836.204 720 C 841.128 731.825, 847.001 745.223, 849.253 749.773 C 856.636 764.683, 868.781 775.592, 886.786 783.485 C 918.144 797.232, 952.932 800.320, 987.351 792.413 C 1038.198 780.732, 1075.891 755.373, 1093.420 721.054 C 1105.031 698.321, 1109.388 678.810, 1109.400 649.500 C 1109.408 628.771, 1107.449 613.662, 1103.078 600.731 C 1099.412 589.885, 1097.761 586.772, 1091.668 579.220 C 1078.350 562.711, 1057.176 553.624, 1014.460 546.087 C 988.566 541.518, 937.053 536.991, 888.500 535.018 C 834.002 532.804, 731.324 531.096, 729.917 532.380" stroke="none" fill="#09e8e0" fill-rule="evenodd"/></svg>